<svg width="36" height="36" viewBox="0 0 36 36" fill="none" xmlns="http://www.w3.org/2000/svg">
<g clip-path="url(#clip0_381_5159)">
<rect width="36" height="36" rx="18" fill="white"/>
<path fill-rule="evenodd" clip-rule="evenodd" d="M36 18C36 27.9411 27.9411 36 18 36C8.05887 36 0 27.9411 0 18C0 8.05887 8.05887 0 18 0C27.9411 0 36 8.05887 36 18ZM30.0038 16.9516C30.0038 11.5741 24.6128 7.20007 17.9877 7.20007C11.3626 7.20007 5.97156 11.5752 5.97156 16.9516C5.97156 21.7722 10.2466 25.8087 16.0212 26.5726C16.4127 26.657 16.9448 26.8302 17.0798 27.1655C17.2013 27.4692 17.1586 27.9451 17.1192 28.2522C17.1192 28.2522 16.9786 29.1005 16.9482 29.2805L16.9437 29.3059C16.8863 29.6303 16.7405 30.4541 17.9888 29.9285C19.2713 29.3885 24.9087 25.8537 27.4298 22.9523C29.1702 21.0421 30.0038 19.1037 30.0038 16.9516ZM13.7486 19.827C13.7486 19.9541 13.6462 20.0565 13.5191 20.0565V20.0553H10.1464H10.1419C10.0147 20.0553 9.91235 19.953 9.91235 19.8258V19.8225V14.5822C9.91235 14.4551 10.0147 14.3527 10.1419 14.3527H10.9946C11.1206 14.3527 11.2241 14.4562 11.2241 14.5822V18.7447H13.5191C13.6451 18.7447 13.7486 18.8482 13.7486 18.9742V19.827ZM26.2362 19.827C26.2362 19.9541 26.1339 20.0565 26.0067 20.0565V20.0542H22.6351H22.6306C22.5035 20.0542 22.4011 19.9518 22.4011 19.8247V19.8213V14.5867V14.5822C22.4011 14.4551 22.5035 14.3527 22.6306 14.3527H22.6351H26.0067C26.1327 14.3527 26.2362 14.4562 26.2362 14.5822V15.4338C26.2362 15.561 26.1339 15.6633 26.0067 15.6633H23.7129V16.5487H26.0067C26.1327 16.5487 26.2362 16.6522 26.2362 16.7782V17.6298C26.2362 17.757 26.1339 17.8593 26.0067 17.8593H23.7129V18.7447H26.0067C26.1327 18.7447 26.2362 18.8482 26.2362 18.9742V19.827ZM15.5507 14.3527H14.6979C14.5708 14.3527 14.4684 14.4551 14.4684 14.5822V19.827C14.4684 19.9541 14.5708 20.0565 14.6979 20.0565H15.5507C15.6778 20.0565 15.7802 19.9541 15.7802 19.827V14.5822C15.7802 14.4562 15.6778 14.3527 15.5507 14.3527ZM20.4996 14.3527H21.3523C21.4795 14.3527 21.5818 14.4562 21.5818 14.5845V19.8292C21.5818 19.9563 21.4795 20.0587 21.3523 20.0587H20.5052C20.485 20.0587 20.4647 20.0553 20.4456 20.0508C20.445 20.0508 20.4445 20.0506 20.4439 20.0503C20.4433 20.05 20.4428 20.0497 20.4422 20.0497C20.4366 20.0486 20.4321 20.0475 20.4265 20.0452C20.4242 20.0452 20.422 20.0441 20.4197 20.043L20.4177 20.0423C20.4147 20.0414 20.4112 20.0403 20.4085 20.0385C20.4068 20.0374 20.4048 20.0365 20.4029 20.0357L20.4028 20.0357L20.4006 20.0347C20.3994 20.0341 20.3982 20.0335 20.3972 20.0328L20.3905 20.0295L20.3857 20.0267L20.3857 20.0267C20.3821 20.0246 20.379 20.0228 20.3758 20.0205C20.3758 20.0198 20.3754 20.0195 20.3748 20.0191L20.3736 20.0182C20.3511 20.0036 20.3308 19.9845 20.314 19.9608L17.9121 16.7163V19.8303C17.9121 19.9575 17.8097 20.0598 17.6826 20.0598H16.8298C16.7027 20.0598 16.6003 19.9575 16.6003 19.8303V14.5856C16.6003 14.4585 16.7027 14.3561 16.8298 14.3561H17.677H17.6848C17.6893 14.3572 17.6927 14.3572 17.6972 14.3572C17.7 14.3572 17.7024 14.3572 17.7049 14.3575C17.7064 14.3577 17.7079 14.3579 17.7096 14.3583C17.713 14.3583 17.7163 14.3583 17.7197 14.3595L17.7332 14.3628C17.7343 14.3634 17.7357 14.3637 17.7372 14.364C17.7381 14.3642 17.7391 14.3644 17.7399 14.3646C17.7403 14.3648 17.7407 14.3649 17.7411 14.3651C17.7426 14.3655 17.7441 14.366 17.7457 14.3665C17.7464 14.3668 17.7471 14.3671 17.7478 14.3673C17.7501 14.3682 17.7523 14.369 17.7546 14.3696C17.758 14.3696 17.7602 14.3707 17.7625 14.3718C17.767 14.373 17.7715 14.3752 17.776 14.3775L17.7827 14.3808L17.7889 14.3842L17.7951 14.3876C17.7962 14.3882 17.7973 14.389 17.7985 14.3898C17.7996 14.3907 17.8007 14.3915 17.8018 14.3921L17.8019 14.3921C17.8064 14.3944 17.8108 14.3966 17.8142 14.4C17.8153 14.4005 17.8165 14.4014 17.8176 14.4022L17.8176 14.4022C17.8182 14.4026 17.8187 14.4031 17.8193 14.4034C17.8198 14.4038 17.8204 14.4042 17.821 14.4045C17.8232 14.4061 17.8252 14.4078 17.8271 14.4095L17.8272 14.4095C17.8291 14.4112 17.8311 14.4129 17.8333 14.4146C17.8339 14.4152 17.8347 14.4157 17.8356 14.4163L17.8363 14.4168L17.8378 14.418C17.8401 14.4202 17.8423 14.4228 17.8446 14.4253L17.8446 14.4253C17.8469 14.4278 17.8491 14.4304 17.8513 14.4326L17.8525 14.4337C17.8553 14.4377 17.8584 14.4416 17.8615 14.4455C17.8646 14.4495 17.8677 14.4534 17.8705 14.4573L20.2701 17.6973V14.5822C20.2701 14.4551 20.3725 14.3527 20.4996 14.3527Z" fill="#06C755"/>
</g>
<defs>
<clipPath id="clip0_381_5159">
<rect width="36" height="36" rx="18" fill="white"/>
</clipPath>
</defs>
</svg>
